<svg xmlns="http://www.w3.org/2000/svg" width="60.96mm" height="128.5mm" viewBox="0 0 60.96 128.5">
  <rect width="60.96" height="128.5" fill="#1a1a2e" />
  <rect x="2.00" y="11.00" width="26.48" height="108.00" fill="#1d2036" stroke="#303957" stroke-width="0.30" rx="1.50" />
  <rect x="32.48" y="11.00" width="26.48" height="108.00" fill="#1d2036" stroke="#303957" stroke-width="0.30" rx="1.50" />
  <line x1="4.00" y1="31.00" x2="56.96" y2="31.00" stroke="#3b4668" stroke-width="0.20" />
  <line x1="4.00" y1="44.00" x2="56.96" y2="44.00" stroke="#3b4668" stroke-width="0.20" />
  <line x1="4.00" y1="56.00" x2="56.96" y2="56.00" stroke="#3b4668" stroke-width="0.20" />
  <line x1="4.00" y1="68.00" x2="56.96" y2="68.00" stroke="#3b4668" stroke-width="0.20" />
  <line x1="4.00" y1="81.00" x2="56.96" y2="81.00" stroke="#3b4668" stroke-width="0.20" />
  <line x1="4.00" y1="94.00" x2="56.96" y2="94.00" stroke="#3b4668" stroke-width="0.20" />
  <line x1="4.00" y1="107.00" x2="56.96" y2="107.00" stroke="#3b4668" stroke-width="0.20" />
  <line x1="24.48" y1="38.00" x2="36.48" y2="38.00" stroke="#56627d" stroke-width="0.30" />
  <line x1="30.78" y1="37.00" x2="31.98" y2="38.00" stroke="#56627d" stroke-width="0.30" />
  <line x1="30.78" y1="39.00" x2="31.98" y2="38.00" stroke="#56627d" stroke-width="0.30" />
  <line x1="24.48" y1="50.00" x2="36.48" y2="50.00" stroke="#56627d" stroke-width="0.30" />
  <line x1="30.78" y1="49.00" x2="31.98" y2="50.00" stroke="#56627d" stroke-width="0.30" />
  <line x1="30.78" y1="51.00" x2="31.98" y2="50.00" stroke="#56627d" stroke-width="0.30" />
  <line x1="24.48" y1="62.00" x2="36.48" y2="62.00" stroke="#56627d" stroke-width="0.30" />
  <line x1="30.78" y1="61.00" x2="31.98" y2="62.00" stroke="#56627d" stroke-width="0.30" />
  <line x1="30.78" y1="63.00" x2="31.98" y2="62.00" stroke="#56627d" stroke-width="0.30" />
  <rect x="14.24" y="33.00" width="2.00" height="10.00" fill="#111525" stroke="#3b4668" stroke-width="0.30" rx="0.80" />
  <rect x="44.72" y="33.00" width="2.00" height="10.00" fill="#111525" stroke="#3b4668" stroke-width="0.30" rx="0.80" />
  <circle cx="8.00" cy="24.00" r="2.50" fill="#30364d" stroke="#aab3c8" stroke-width="0.30" />
  <circle cx="22.48" cy="24.00" r="2.50" fill="#30364d" stroke="#aab3c8" stroke-width="0.30" />
  <circle cx="8.00" cy="38.00" r="3.20" fill="#202538" stroke="#77819c" stroke-width="0.30" />
  <circle cx="22.48" cy="38.00" r="3.20" fill="#202538" stroke="#77819c" stroke-width="0.30" />
  <circle cx="8.00" cy="50.00" r="3.20" fill="#202538" stroke="#77819c" stroke-width="0.30" />
  <circle cx="22.48" cy="50.00" r="2.00" fill="#30364d" stroke="#68718e" stroke-width="0.30" />
  <circle cx="8.00" cy="62.00" r="3.20" fill="#202538" stroke="#77819c" stroke-width="0.30" />
  <circle cx="22.48" cy="62.00" r="2.00" fill="#30364d" stroke="#68718e" stroke-width="0.30" />
  <circle cx="8.00" cy="74.00" r="3.20" fill="#202538" stroke="#77819c" stroke-width="0.30" />
  <circle cx="22.48" cy="74.00" r="3.20" fill="#202538" stroke="#77819c" stroke-width="0.30" />
  <circle cx="8.00" cy="88.00" r="3.20" fill="#202538" stroke="#77819c" stroke-width="0.30" />
  <circle cx="22.48" cy="88.00" r="3.20" fill="#202538" stroke="#77819c" stroke-width="0.30" />
  <circle cx="8.00" cy="100.00" r="3.20" fill="#202538" stroke="#77819c" stroke-width="0.30" />
  <circle cx="22.48" cy="100.00" r="3.20" fill="#202538" stroke="#77819c" stroke-width="0.30" />
  <circle cx="38.48" cy="24.00" r="2.50" fill="#30364d" stroke="#aab3c8" stroke-width="0.30" />
  <circle cx="52.96" cy="24.00" r="2.50" fill="#30364d" stroke="#aab3c8" stroke-width="0.30" />
  <circle cx="38.48" cy="38.00" r="3.20" fill="#202538" stroke="#77819c" stroke-width="0.30" />
  <circle cx="52.96" cy="38.00" r="3.20" fill="#202538" stroke="#77819c" stroke-width="0.30" />
  <circle cx="38.48" cy="50.00" r="3.20" fill="#202538" stroke="#77819c" stroke-width="0.30" />
  <circle cx="52.96" cy="50.00" r="2.00" fill="#30364d" stroke="#68718e" stroke-width="0.30" />
  <circle cx="38.48" cy="62.00" r="3.20" fill="#202538" stroke="#77819c" stroke-width="0.30" />
  <circle cx="52.96" cy="62.00" r="2.00" fill="#30364d" stroke="#68718e" stroke-width="0.30" />
  <circle cx="38.48" cy="74.00" r="3.20" fill="#202538" stroke="#77819c" stroke-width="0.30" />
  <circle cx="52.96" cy="74.00" r="3.20" fill="#202538" stroke="#77819c" stroke-width="0.30" />
  <circle cx="38.48" cy="88.00" r="3.20" fill="#202538" stroke="#77819c" stroke-width="0.30" />
  <circle cx="52.96" cy="88.00" r="3.20" fill="#202538" stroke="#77819c" stroke-width="0.30" />
  <circle cx="38.48" cy="100.00" r="3.20" fill="#202538" stroke="#77819c" stroke-width="0.30" />
  <circle cx="52.96" cy="100.00" r="3.20" fill="#202538" stroke="#77819c" stroke-width="0.30" />
  <circle cx="8.00" cy="114.00" r="3.20" fill="#202538" stroke="#77819c" stroke-width="0.30" />
  <circle cx="23.00" cy="114.00" r="3.20" fill="#202538" stroke="#77819c" stroke-width="0.30" />
  <circle cx="38.00" cy="114.00" r="3.20" fill="#202538" stroke="#77819c" stroke-width="0.30" />
  <circle cx="53.00" cy="114.00" r="3.20" fill="#202538" stroke="#77819c" stroke-width="0.30" />
</svg>
