<svg xmlns="http://www.w3.org/2000/svg" width="162.56mm" height="128.5mm" viewBox="0 0 162.56 128.5">
  <rect x="0" y="0" width="162.56" height="128.5" fill="#ece8d9" stroke="#ece8d9" stroke-width="0" />
  <g id="wintoid-logo" transform="translate(124.959 0.638) scale(0.06)">
    <g id="wint-glyphs" fill="#155f91"><path data-glyph="w" data-glyph-index="90" data-bbox="2.6875,-35,49.6562,0" transform="translate(0 70)" fill="#155f91" d="M 2.6875 -35 L 8.4375 -35 L 15.625 -7.6875 L 22.7812 -35 L 29.5625 -35 L 36.75 -7.6875 L 43.9062 -35 L 49.6562 -35 L 40.5 0 L 33.7188 0 L 26.1875 -28.6875 L 18.625 0 L 11.8438 0 Z" /><path data-glyph="i" data-glyph-index="76" data-bbox="6.0312,-48.625,11.7812,0" transform="translate(52 70)" fill="#155f91" d="M 6.0312 -35 L 11.7812 -35 L 11.7812 0 L 6.0312 0 Z M 6.0312 -48.625 L 11.7812 -48.625 L 11.7812 -41.3438 L 6.0312 -41.3438 Z" /><path data-glyph="n" data-glyph-index="81" data-bbox="5.8125,-35.8438,35.125,0" transform="translate(70 70)" fill="#155f91" d="M 35.125 -21.125 L 35.125 0 L 29.375 0 L 29.375 -20.9375 Q 29.375 -25.9062 27.4375 -28.375 Q 25.5 -30.8438 21.625 -30.8438 Q 16.9688 -30.8438 14.2812 -27.875 Q 11.5938 -24.9062 11.5938 -19.7812 L 11.5938 0 L 5.8125 0 L 5.8125 -35 L 11.5938 -35 L 11.5938 -29.5625 Q 13.6562 -32.7188 16.4531 -34.2812 Q 19.25 -35.8438 22.9062 -35.8438 Q 28.9375 -35.8438 32.0312 -32.1094 Q 35.125 -28.375 35.125 -21.125 Z" /><path data-glyph="t" data-glyph-index="87" data-bbox="1.7188,-44.9375,23.5625,0" transform="translate(111 70)" fill="#155f91" d="M 11.7188 -44.9375 L 11.7188 -35 L 23.5625 -35 L 23.5625 -30.5312 L 11.7188 -30.5312 L 11.7188 -11.5312 Q 11.7188 -7.25 12.8906 -6.0312 Q 14.0625 -4.8125 17.6562 -4.8125 L 23.5625 -4.8125 L 23.5625 0 L 17.6562 0 Q 11 0 8.4688 -2.4844 Q 5.9375 -4.9688 5.9375 -11.5312 L 5.9375 -30.5312 L 1.7188 -30.5312 L 1.7188 -35 L 5.9375 -35 L 5.9375 -44.9375 Z" /></g>
    <line id="wint-underline" x1="2.6875" y1="74" x2="134.5625" y2="74" stroke="#155f91" stroke-width="1.4" stroke-linecap="square" />
    <g id="oid-glyphs" fill="#ed5b22"><path data-glyph="o" data-glyph-index="82" data-bbox="3.5312,-35.8438,35.6562,0.9062" transform="translate(136 70)" fill="#ed5b22" d="M 19.5938 -30.9688 Q 14.9688 -30.9688 12.2812 -27.3594 Q 9.5938 -23.75 9.5938 -17.4688 Q 9.5938 -11.1875 12.2656 -7.5781 Q 14.9375 -3.9688 19.5938 -3.9688 Q 24.1875 -3.9688 26.875 -7.5938 Q 29.5625 -11.2188 29.5625 -17.4688 Q 29.5625 -23.6875 26.875 -27.3281 Q 24.1875 -30.9688 19.5938 -30.9688 Z M 19.5938 -35.8438 Q 27.0938 -35.8438 31.375 -30.9688 Q 35.6562 -26.0938 35.6562 -17.4688 Q 35.6562 -8.875 31.375 -3.9844 Q 27.0938 0.9062 19.5938 0.9062 Q 12.0625 0.9062 7.7969 -3.9844 Q 3.5312 -8.875 3.5312 -17.4688 Q 3.5312 -26.0938 7.7969 -30.9688 Q 12.0625 -35.8438 19.5938 -35.8438 Z" /><path data-glyph="i" data-glyph-index="76" data-bbox="6.0312,-48.625,11.7812,0" transform="translate(175 70)" fill="#ed5b22" d="M 6.0312 -35 L 11.7812 -35 L 11.7812 0 L 6.0312 0 Z M 6.0312 -48.625 L 11.7812 -48.625 L 11.7812 -41.3438 L 6.0312 -41.3438 Z" /><path data-glyph="d" data-glyph-index="71" data-bbox="3.5312,-48.625,34.8125,0.9062" transform="translate(193 70)" fill="#ed5b22" d="M 29.0625 -29.6875 L 29.0625 -48.625 L 34.8125 -48.625 L 34.8125 0 L 29.0625 0 L 29.0625 -5.25 Q 27.25 -2.125 24.4844 -0.6094 Q 21.7188 0.9062 17.8438 0.9062 Q 11.5 0.9062 7.5156 -4.1562 Q 3.5312 -9.2188 3.5312 -17.4688 Q 3.5312 -25.7188 7.5156 -30.7812 Q 11.5 -35.8438 17.8438 -35.8438 Q 21.7188 -35.8438 24.4844 -34.3281 Q 27.25 -32.8125 29.0625 -29.6875 Z M 9.4688 -17.4688 Q 9.4688 -11.125 12.0781 -7.5156 Q 14.6875 -3.9062 19.25 -3.9062 Q 23.8125 -3.9062 26.4375 -7.5156 Q 29.0625 -11.125 29.0625 -17.4688 Q 29.0625 -23.8125 26.4375 -27.4219 Q 23.8125 -31.0312 19.25 -31.0312 Q 14.6875 -31.0312 12.0781 -27.4219 Q 9.4688 -23.8125 9.4688 -17.4688 Z" /></g>
    <line id="oid-underline" x1="139.5312" y1="74" x2="227.8125" y2="74" stroke="#ed5b22" stroke-width="1.4" stroke-linecap="square" />
  </g>
  <text x="6" y="7" text-anchor="start" font-family="DejaVu Sans" font-size="6.6" font-weight="600" fill="#242522">FourV2</text>
  <rect id="routing-section" x="4" y="10.5" width="154.56" height="25.5" fill="#e3e0d1" stroke="#556d80" stroke-width="0.35" rx="1.4" />
  <text x="8.5" y="29.2" text-anchor="middle" font-family="DejaVu Sans" font-size="1.55" font-weight="600" fill="#242522">ALGO</text>
  <rect id="routing-display" x="17.5" y="13" width="48" height="21" fill="#242522" stroke="#556d80" stroke-width="0.35" rx="1" />
  <g id="routing-display-art">
  <path d="M 25.34 22.028 C 30.34 18.028, 28.598 26.028, 33.598 22.028" fill="none" stroke="#b7693c" stroke-width="0.45" stroke-linecap="round" stroke-linejoin="round" />
  <path d="M 37.598 22.028 C 42.598 18.028, 40.856 26.028, 45.856 22.028" fill="none" stroke="#b7693c" stroke-width="0.45" stroke-linecap="round" stroke-linejoin="round" />
  <path d="M 49.856 22.028 C 54.856 18.028, 52.66 26.028, 57.66 22.028" fill="none" stroke="#b7693c" stroke-width="0.45" stroke-linecap="round" stroke-linejoin="round" />
  <line x1="23.34" y1="28.284" x2="59.66" y2="28.284" stroke="#9c7a35" stroke-width="0.45" />
    <circle cx="23.34" cy="22.028" r="1.65" fill="#242522" stroke="#ece8d9" stroke-width="0.35" />
    <text x="23.34" y="22.828" text-anchor="middle" font-family="DejaVu Sans" font-size="1.8" fill="#ece8d9">1</text>
    <circle cx="35.598" cy="22.028" r="1.65" fill="#242522" stroke="#ece8d9" stroke-width="0.35" />
    <text x="35.598" y="22.828" text-anchor="middle" font-family="DejaVu Sans" font-size="1.8" fill="#ece8d9">2</text>
    <circle cx="47.856" cy="22.028" r="1.65" fill="#242522" stroke="#ece8d9" stroke-width="0.35" />
    <text x="47.856" y="22.828" text-anchor="middle" font-family="DejaVu Sans" font-size="1.8" fill="#ece8d9">3</text>
    <circle cx="59.66" cy="22.028" r="1.65" fill="#242522" stroke="#ece8d9" stroke-width="0.35" />
    <text x="59.66" y="22.828" text-anchor="middle" font-family="DejaVu Sans" font-size="1.8" fill="#ece8d9">4</text>
  </g>
  <text x="70.5" y="12.8" text-anchor="middle" font-family="DejaVu Sans" font-size="1.55" font-weight="400" fill="#242522">TUNE</text>
  <text x="82.5" y="12.8" text-anchor="middle" font-family="DejaVu Sans" font-size="1.55" font-weight="400" fill="#242522">PM DEPTH</text>
  <text x="94.5" y="12.8" text-anchor="middle" font-family="DejaVu Sans" font-size="1.55" font-weight="400" fill="#242522">MASTER</text>
  <text x="119" y="12.8" text-anchor="middle" font-family="DejaVu Sans" font-size="1.55" font-weight="400" fill="#242522">PM CV</text>
  <text x="131" y="12.8" text-anchor="middle" font-family="DejaVu Sans" font-size="1.55" font-weight="400" fill="#242522">ATTEN</text>
  <text x="106.5" y="35.1" text-anchor="middle" font-family="DejaVu Sans" font-size="1.65" font-weight="400" fill="#242522">EXT PM</text>
  <text x="118.5" y="35.1" text-anchor="middle" font-family="DejaVu Sans" font-size="1.55" font-weight="400" fill="#242522">ATTEN</text>
  <rect id="operator-section-1" x="4" y="37.5" width="37.515" height="87" fill="#e7e3d4" stroke="#556d80" stroke-width="0.3" rx="1.2" />
  <text x="22.758" y="40.8" text-anchor="middle" font-family="DejaVu Sans" font-size="2.4" font-weight="600" fill="#242522" letter-spacing="0.25">OP1</text>
  <rect id="op1-frequency-display" x="8" y="41.5" width="29.515" height="4" fill="#242522" stroke="#556d80" stroke-width="0.25" rx="0.6" />
  <text x="9.5" y="44.2" text-anchor="start" font-family="DejaVu Sans" font-size="1.45" font-weight="400" fill="#556d80">FREQ</text>
  <text x="14.008" y="57.85" text-anchor="middle" font-family="DejaVu Sans" font-size="1.6" font-weight="400" fill="#242522">COARSE</text>
  <text x="31.508" y="57.85" text-anchor="middle" font-family="DejaVu Sans" font-size="1.45" font-weight="400" fill="#242522">MODE</text>
  <text x="14.008" y="70.35" text-anchor="middle" font-family="DejaVu Sans" font-size="1.6" font-weight="400" fill="#242522">FINE</text>
  <text x="31.508" y="70.35" text-anchor="middle" font-family="DejaVu Sans" font-size="1.6" font-weight="400" fill="#242522">TYPE</text>
  <text x="12.258" y="73" text-anchor="middle" font-family="DejaVu Sans" font-size="1.6" font-weight="400" fill="#242522">OUTPUT</text>
  <text x="12.258" y="86.5" text-anchor="middle" font-family="DejaVu Sans" font-size="1.6" font-weight="400" fill="#242522">WARP</text>
  <text x="12.258" y="100" text-anchor="middle" font-family="DejaVu Sans" font-size="1.6" font-weight="400" fill="#242522">FOLD</text>
  <text x="12.258" y="113.5" text-anchor="middle" font-family="DejaVu Sans" font-size="1.6" font-weight="400" fill="#242522">FEEDBACK</text>
  <text x="22.758" y="73" text-anchor="middle" font-family="DejaVu Sans" font-size="1.35" font-weight="400" fill="#242522">CV</text>
  <text x="33.258" y="73" text-anchor="middle" font-family="DejaVu Sans" font-size="1.35" font-weight="400" fill="#242522">ATTEN</text>
  <rect id="operator-section-2" x="43.015" y="37.5" width="37.515" height="87" fill="#e3e0d1" stroke="#556d80" stroke-width="0.3" rx="1.2" />
  <text x="61.773" y="40.8" text-anchor="middle" font-family="DejaVu Sans" font-size="2.4" font-weight="600" fill="#242522" letter-spacing="0.25">OP2</text>
  <rect id="op2-frequency-display" x="47.015" y="41.5" width="29.515" height="4" fill="#242522" stroke="#556d80" stroke-width="0.25" rx="0.6" />
  <text x="48.515" y="44.2" text-anchor="start" font-family="DejaVu Sans" font-size="1.45" font-weight="400" fill="#556d80">FREQ</text>
  <text x="53.023" y="57.85" text-anchor="middle" font-family="DejaVu Sans" font-size="1.6" font-weight="400" fill="#242522">COARSE</text>
  <text x="70.523" y="57.85" text-anchor="middle" font-family="DejaVu Sans" font-size="1.45" font-weight="400" fill="#242522">MODE</text>
  <text x="53.023" y="70.35" text-anchor="middle" font-family="DejaVu Sans" font-size="1.6" font-weight="400" fill="#242522">FINE</text>
  <text x="70.523" y="70.35" text-anchor="middle" font-family="DejaVu Sans" font-size="1.6" font-weight="400" fill="#242522">TYPE</text>
  <text x="51.273" y="73" text-anchor="middle" font-family="DejaVu Sans" font-size="1.6" font-weight="400" fill="#242522">OUTPUT</text>
  <text x="51.273" y="86.5" text-anchor="middle" font-family="DejaVu Sans" font-size="1.6" font-weight="400" fill="#242522">WARP</text>
  <text x="51.273" y="100" text-anchor="middle" font-family="DejaVu Sans" font-size="1.6" font-weight="400" fill="#242522">FOLD</text>
  <text x="51.273" y="113.5" text-anchor="middle" font-family="DejaVu Sans" font-size="1.6" font-weight="400" fill="#242522">FEEDBACK</text>
  <text x="61.773" y="73" text-anchor="middle" font-family="DejaVu Sans" font-size="1.35" font-weight="400" fill="#242522">CV</text>
  <text x="72.273" y="73" text-anchor="middle" font-family="DejaVu Sans" font-size="1.35" font-weight="400" fill="#242522">ATTEN</text>
  <rect id="operator-section-3" x="82.03" y="37.5" width="37.515" height="87" fill="#e7e3d4" stroke="#556d80" stroke-width="0.3" rx="1.2" />
  <text x="100.787" y="40.8" text-anchor="middle" font-family="DejaVu Sans" font-size="2.4" font-weight="600" fill="#242522" letter-spacing="0.25">OP3</text>
  <rect id="op3-frequency-display" x="86.03" y="41.5" width="29.515" height="4" fill="#242522" stroke="#556d80" stroke-width="0.25" rx="0.6" />
  <text x="87.53" y="44.2" text-anchor="start" font-family="DejaVu Sans" font-size="1.45" font-weight="400" fill="#556d80">FREQ</text>
  <text x="92.037" y="57.85" text-anchor="middle" font-family="DejaVu Sans" font-size="1.6" font-weight="400" fill="#242522">COARSE</text>
  <text x="109.537" y="57.85" text-anchor="middle" font-family="DejaVu Sans" font-size="1.45" font-weight="400" fill="#242522">MODE</text>
  <text x="92.037" y="70.35" text-anchor="middle" font-family="DejaVu Sans" font-size="1.6" font-weight="400" fill="#242522">FINE</text>
  <text x="109.537" y="70.35" text-anchor="middle" font-family="DejaVu Sans" font-size="1.6" font-weight="400" fill="#242522">TYPE</text>
  <text x="90.287" y="73" text-anchor="middle" font-family="DejaVu Sans" font-size="1.6" font-weight="400" fill="#242522">OUTPUT</text>
  <text x="90.287" y="86.5" text-anchor="middle" font-family="DejaVu Sans" font-size="1.6" font-weight="400" fill="#242522">WARP</text>
  <text x="90.287" y="100" text-anchor="middle" font-family="DejaVu Sans" font-size="1.6" font-weight="400" fill="#242522">FOLD</text>
  <text x="90.287" y="113.5" text-anchor="middle" font-family="DejaVu Sans" font-size="1.6" font-weight="400" fill="#242522">FEEDBACK</text>
  <text x="100.787" y="73" text-anchor="middle" font-family="DejaVu Sans" font-size="1.35" font-weight="400" fill="#242522">CV</text>
  <text x="111.287" y="73" text-anchor="middle" font-family="DejaVu Sans" font-size="1.35" font-weight="400" fill="#242522">ATTEN</text>
  <rect id="operator-section-4" x="121.045" y="37.5" width="37.515" height="87" fill="#e3e0d1" stroke="#556d80" stroke-width="0.3" rx="1.2" />
  <text x="139.803" y="40.8" text-anchor="middle" font-family="DejaVu Sans" font-size="2.4" font-weight="600" fill="#242522" letter-spacing="0.25">OP4</text>
  <rect id="op4-frequency-display" x="125.045" y="41.5" width="29.515" height="4" fill="#242522" stroke="#556d80" stroke-width="0.25" rx="0.6" />
  <text x="126.545" y="44.2" text-anchor="start" font-family="DejaVu Sans" font-size="1.45" font-weight="400" fill="#556d80">FREQ</text>
  <text x="131.053" y="57.85" text-anchor="middle" font-family="DejaVu Sans" font-size="1.6" font-weight="400" fill="#242522">COARSE</text>
  <text x="148.553" y="57.85" text-anchor="middle" font-family="DejaVu Sans" font-size="1.45" font-weight="400" fill="#242522">MODE</text>
  <text x="131.053" y="70.35" text-anchor="middle" font-family="DejaVu Sans" font-size="1.6" font-weight="400" fill="#242522">FINE</text>
  <text x="148.553" y="70.35" text-anchor="middle" font-family="DejaVu Sans" font-size="1.6" font-weight="400" fill="#242522">TYPE</text>
  <text x="129.303" y="73" text-anchor="middle" font-family="DejaVu Sans" font-size="1.6" font-weight="400" fill="#242522">OUTPUT</text>
  <text x="129.303" y="86.5" text-anchor="middle" font-family="DejaVu Sans" font-size="1.6" font-weight="400" fill="#242522">WARP</text>
  <text x="129.303" y="100" text-anchor="middle" font-family="DejaVu Sans" font-size="1.6" font-weight="400" fill="#242522">FOLD</text>
  <text x="129.303" y="113.5" text-anchor="middle" font-family="DejaVu Sans" font-size="1.6" font-weight="400" fill="#242522">FEEDBACK</text>
  <text x="139.803" y="73" text-anchor="middle" font-family="DejaVu Sans" font-size="1.35" font-weight="400" fill="#242522">CV</text>
  <text x="150.303" y="73" text-anchor="middle" font-family="DejaVu Sans" font-size="1.35" font-weight="400" fill="#242522">ATTEN</text>
  <text x="13" y="14.5" text-anchor="start" font-family="DejaVu Sans" font-size="1.55" font-weight="400" fill="#242522" textLength="4.5" lengthAdjust="spacingAndGlyphs">V/OCT</text>
  <text x="153" y="24.5" text-anchor="middle" font-family="DejaVu Sans" font-size="1.55" font-weight="400" fill="#242522" textLength="9.5" lengthAdjust="spacingAndGlyphs">MAIN OUT</text>
  <text x="145" y="35.1" text-anchor="middle" font-family="DejaVu Sans" font-size="1.55" font-weight="400" fill="#b7693c">OVER</text>
  <circle cx="8.5" cy="23.5" r="3.84" fill="#242522" stroke="#556d80" stroke-width="0.3" />
  <circle cx="70.5" cy="17.5" r="3.84" fill="#242522" stroke="#556d80" stroke-width="0.3" />
  <circle cx="82.5" cy="17.5" r="3.84" fill="#242522" stroke="#556d80" stroke-width="0.3" />
  <circle cx="94.5" cy="17.5" r="3.84" fill="#242522" stroke="#556d80" stroke-width="0.3" />
  <circle cx="119" cy="17.5" r="4.013" fill="#242522" stroke="#556d80" stroke-width="0.3" />
  <circle cx="131" cy="17.5" r="3.84" fill="#242522" stroke="#b7693c" stroke-width="0.3" />
  <circle cx="106.5" cy="29" r="4.013" fill="#242522" stroke="#556d80" stroke-width="0.3" />
  <circle cx="118.5" cy="29" r="3.84" fill="#242522" stroke="#b7693c" stroke-width="0.3" />
  <circle cx="8.5" cy="14.5" r="4.013" fill="#242522" stroke="#556d80" stroke-width="0.3" />
  <circle cx="153" cy="17.5" r="4.463" fill="#39445f" stroke="#dfe7f3" stroke-width="0.55" />
  <circle cx="145" cy="29" r="1.2" fill="#a93636" stroke="#242522" stroke-width="0.25" />
  <circle cx="14.008" cy="52" r="3.84" fill="#242522" stroke="#556d80" stroke-width="0.3" />
  <rect x="26.508" y="49.5" width="10" height="5" fill="#242522" stroke="#b7693c" stroke-width="0.5" rx="0.9" />
  <circle cx="14.008" cy="64.5" r="3.84" fill="#242522" stroke="#556d80" stroke-width="0.3" />
  <rect x="26.508" y="62" width="10" height="5" fill="#242522" stroke="#b7693c" stroke-width="0.5" rx="0.9" />
  <circle cx="12.258" cy="78" r="3.84" fill="#242522" stroke="#556d80" stroke-width="0.3" />
  <circle cx="12.258" cy="91.5" r="3.84" fill="#242522" stroke="#556d80" stroke-width="0.3" />
  <circle cx="12.258" cy="105" r="3.84" fill="#242522" stroke="#556d80" stroke-width="0.3" />
  <circle cx="12.258" cy="118.5" r="3.84" fill="#242522" stroke="#556d80" stroke-width="0.3" />
  <circle cx="53.023" cy="52" r="3.84" fill="#242522" stroke="#556d80" stroke-width="0.3" />
  <rect x="65.523" y="49.5" width="10" height="5" fill="#242522" stroke="#b7693c" stroke-width="0.5" rx="0.9" />
  <circle cx="53.023" cy="64.5" r="3.84" fill="#242522" stroke="#556d80" stroke-width="0.3" />
  <rect x="65.523" y="62" width="10" height="5" fill="#242522" stroke="#b7693c" stroke-width="0.5" rx="0.9" />
  <circle cx="51.273" cy="78" r="3.84" fill="#242522" stroke="#556d80" stroke-width="0.3" />
  <circle cx="51.273" cy="91.5" r="3.84" fill="#242522" stroke="#556d80" stroke-width="0.3" />
  <circle cx="51.273" cy="105" r="3.84" fill="#242522" stroke="#556d80" stroke-width="0.3" />
  <circle cx="51.273" cy="118.5" r="3.84" fill="#242522" stroke="#556d80" stroke-width="0.3" />
  <circle cx="92.037" cy="52" r="3.84" fill="#242522" stroke="#556d80" stroke-width="0.3" />
  <rect x="104.537" y="49.5" width="10" height="5" fill="#242522" stroke="#b7693c" stroke-width="0.5" rx="0.9" />
  <circle cx="92.037" cy="64.5" r="3.84" fill="#242522" stroke="#556d80" stroke-width="0.3" />
  <rect x="104.537" y="62" width="10" height="5" fill="#242522" stroke="#b7693c" stroke-width="0.5" rx="0.9" />
  <circle cx="90.287" cy="78" r="3.84" fill="#242522" stroke="#556d80" stroke-width="0.3" />
  <circle cx="90.287" cy="91.5" r="3.84" fill="#242522" stroke="#556d80" stroke-width="0.3" />
  <circle cx="90.287" cy="105" r="3.84" fill="#242522" stroke="#556d80" stroke-width="0.3" />
  <circle cx="90.287" cy="118.5" r="3.84" fill="#242522" stroke="#556d80" stroke-width="0.3" />
  <circle cx="131.053" cy="52" r="3.84" fill="#242522" stroke="#556d80" stroke-width="0.3" />
  <rect x="143.553" y="49.5" width="10" height="5" fill="#242522" stroke="#b7693c" stroke-width="0.5" rx="0.9" />
  <circle cx="131.053" cy="64.5" r="3.84" fill="#242522" stroke="#556d80" stroke-width="0.3" />
  <rect x="143.553" y="62" width="10" height="5" fill="#242522" stroke="#b7693c" stroke-width="0.5" rx="0.9" />
  <circle cx="129.303" cy="78" r="3.84" fill="#242522" stroke="#556d80" stroke-width="0.3" />
  <circle cx="129.303" cy="91.5" r="3.84" fill="#242522" stroke="#556d80" stroke-width="0.3" />
  <circle cx="129.303" cy="105" r="3.84" fill="#242522" stroke="#556d80" stroke-width="0.3" />
  <circle cx="129.303" cy="118.5" r="3.84" fill="#242522" stroke="#556d80" stroke-width="0.3" />
  <circle cx="22.758" cy="78" r="4.013" fill="#242522" stroke="#556d80" stroke-width="0.3" />
  <circle cx="33.258" cy="78" r="3.84" fill="#242522" stroke="#b7693c" stroke-width="0.3" />
  <circle cx="61.773" cy="78" r="4.013" fill="#242522" stroke="#556d80" stroke-width="0.3" />
  <circle cx="72.273" cy="78" r="3.84" fill="#242522" stroke="#b7693c" stroke-width="0.3" />
  <circle cx="100.787" cy="78" r="4.013" fill="#242522" stroke="#556d80" stroke-width="0.3" />
  <circle cx="111.287" cy="78" r="3.84" fill="#242522" stroke="#b7693c" stroke-width="0.3" />
  <circle cx="139.803" cy="78" r="4.013" fill="#242522" stroke="#556d80" stroke-width="0.3" />
  <circle cx="150.303" cy="78" r="3.84" fill="#242522" stroke="#b7693c" stroke-width="0.3" />
  <circle cx="22.758" cy="91.5" r="4.013" fill="#242522" stroke="#556d80" stroke-width="0.3" />
  <circle cx="33.258" cy="91.5" r="3.84" fill="#242522" stroke="#b7693c" stroke-width="0.3" />
  <circle cx="61.773" cy="91.5" r="4.013" fill="#242522" stroke="#556d80" stroke-width="0.3" />
  <circle cx="72.273" cy="91.5" r="3.84" fill="#242522" stroke="#b7693c" stroke-width="0.3" />
  <circle cx="100.787" cy="91.5" r="4.013" fill="#242522" stroke="#556d80" stroke-width="0.3" />
  <circle cx="111.287" cy="91.5" r="3.84" fill="#242522" stroke="#b7693c" stroke-width="0.3" />
  <circle cx="139.803" cy="91.5" r="4.013" fill="#242522" stroke="#556d80" stroke-width="0.3" />
  <circle cx="150.303" cy="91.5" r="3.84" fill="#242522" stroke="#b7693c" stroke-width="0.3" />
  <circle cx="22.758" cy="105" r="4.013" fill="#242522" stroke="#556d80" stroke-width="0.3" />
  <circle cx="33.258" cy="105" r="3.84" fill="#242522" stroke="#b7693c" stroke-width="0.3" />
  <circle cx="61.773" cy="105" r="4.013" fill="#242522" stroke="#556d80" stroke-width="0.3" />
  <circle cx="72.273" cy="105" r="3.84" fill="#242522" stroke="#b7693c" stroke-width="0.3" />
  <circle cx="100.787" cy="105" r="4.013" fill="#242522" stroke="#556d80" stroke-width="0.3" />
  <circle cx="111.287" cy="105" r="3.84" fill="#242522" stroke="#b7693c" stroke-width="0.3" />
  <circle cx="139.803" cy="105" r="4.013" fill="#242522" stroke="#556d80" stroke-width="0.3" />
  <circle cx="150.303" cy="105" r="3.84" fill="#242522" stroke="#b7693c" stroke-width="0.3" />
  <circle cx="22.758" cy="118.5" r="4.013" fill="#242522" stroke="#556d80" stroke-width="0.3" />
  <circle cx="33.258" cy="118.5" r="3.84" fill="#242522" stroke="#b7693c" stroke-width="0.3" />
  <circle cx="61.773" cy="118.5" r="4.013" fill="#242522" stroke="#556d80" stroke-width="0.3" />
  <circle cx="72.273" cy="118.5" r="3.84" fill="#242522" stroke="#b7693c" stroke-width="0.3" />
  <circle cx="100.787" cy="118.5" r="4.013" fill="#242522" stroke="#556d80" stroke-width="0.3" />
  <circle cx="111.287" cy="118.5" r="3.84" fill="#242522" stroke="#b7693c" stroke-width="0.3" />
  <circle cx="139.803" cy="118.5" r="4.013" fill="#242522" stroke="#556d80" stroke-width="0.3" />
  <circle cx="150.303" cy="118.5" r="3.84" fill="#242522" stroke="#b7693c" stroke-width="0.3" />
</svg>
